<svg enable-background="new 0 0 100 100" viewBox="0 0 100 100" xmlns="http://www.w3.org/2000/svg"><style>path{fill:#fff097}</style><g id="Layer_1"><path d="m70.9014587 68.3905869h-2.5572586c-.8464279 0-1.5322571.6858292-1.5322571 1.5322571 0 .8464355.6858292 1.5322571 1.5322571 1.5322571h2.5572586c.8464279 0 1.5322571-.6858215 1.5322571-1.5322571 0-.846428-.6858291-1.5322571-1.5322571-1.5322571z"/><path d="m80.5434113 68.3905869h-2.5577545c-.8464355 0-1.5322571.6858292-1.5322571 1.5322571 0 .8464355.6858215 1.5322571 1.5322571 1.5322571h2.5577545c.8464355 0 1.5322571-.6858215 1.5322571-1.5322571-.0000001-.846428-.6858216-1.5322571-1.5322571-1.5322571z"/><path d="m95.9677429 94.1466904h-.7990494v-1.6360092c0-3.4410934-2.7991638-6.2402573-6.2397614-6.2402573h-4.9568939c-3.4405975 0-6.2397614 2.7991638-6.2397614 6.2402573v1.6360092h-6.9249648c-.1897888-4.3750076-3.808136-7.8762665-8.2290306-7.8762665h-1.977108l-2.2619133-9.2025299h30.136776c2.6420517 0 4.7918015-2.1492462 4.7918015-4.7912979v-48.8876095c0-2.6420479-2.1497498-4.7912979-4.7918015-4.7912979h-16.0423203v-7.9351225h6.7649765c.6870117 2.7590752 3.1852264 4.8097544 6.1539764 4.8097544 3.4969559 0 6.3420105-2.8450518 6.3420105-6.3420124s-2.8450546-6.3415127-6.3420105-6.3415127c-2.96875 0-5.4669647 2.0503056-6.1539764 4.8092556h-8.2972336c-.8464355 0-1.5322571.6858249-1.5322571 1.5322576v9.4673805h-17.8369445v-3.3129101c2.7590752-.6871967 4.8097534-3.1857204 4.8097534-6.1544704 0-3.4969597-2.8450508-6.3415127-6.3420105-6.3415127s-6.3420105 2.8445532-6.3420105 6.3415127c0 2.96875 2.0506783 5.4672737 4.8097534 6.1544704v3.3129101h-17.8369427v-9.467381c0-.8464327-.6858253-1.5322576-1.5322571-1.5322576h-8.2972374c-.6870098-2.7589498-3.1852226-4.8092556-6.1539717-4.8092556-3.4969606 0-6.3420124 2.8445532-6.3420124 6.3415127s2.8450518 6.3420124 6.3420124 6.3420124c2.968749 0 5.4669619-2.0506792 6.1539717-4.8097544h6.7649784v7.9351225h-16.042323c-2.6420479 0-4.7917976 2.14925-4.7917976 4.7912979v48.8876114c0 2.6420517 2.1497498 4.7912979 4.7917976 4.7912979h30.1367798l-2.2619133 9.2025299h-1.977108c-4.4208946 0-8.0392437 3.5012589-8.2290306 7.8762665h-25.1604324c-.8464329 0-1.532258.6858215-1.532258 1.5322571s.6858251 1.5322571 1.532258 1.5322571h91.9354858c.8464355 0 1.5322571-.6858215 1.5322571-1.5322571s-.685821-1.5322585-1.5322566-1.5322585zm-10.6150741-88.2933789c1.8070831 0 3.2774963 1.4699101 3.2774963 3.2769966s-1.4704132 3.2774963-3.2774963 3.2774963c-1.8070908 0-3.2770004-1.4704094-3.2770004-3.2774963s1.4699096-3.2769966 3.2770004-3.2769966zm-38.6301651 3.2769967c0-1.8070865 1.4704094-3.2769966 3.2774963-3.2769966s3.2774963 1.4699101 3.2774963 3.2769966-1.4704094 3.2774963-3.2774963 3.2774963-3.2774963-1.4704094-3.2774963-3.2774963zm-32.0751696 3.2774963c-1.8070869 0-3.2774963-1.4704094-3.2774963-3.2774963s1.4704094-3.2769966 3.2774963-3.2769966 3.2769976 1.4699101 3.2769976 3.2769966-1.4699116 3.2774963-3.2769976 3.2774963zm66.149457 80.1028767c0-1.7512207 1.4245224-3.1757431 3.1752472-3.1757431h.9461899v1.0933304c0 .8464355.6858215 1.5322571 1.5322571 1.5322571s1.5322571-.6858215 1.5322571-1.5322571v-1.0933305h.9461899c1.7507248 0 3.1752472 1.4245224 3.1752472 3.1757431v1.6360092h-11.3073884zm-11.4275894-70.8484765v25.9920235h-4.9359512v-12.3967247c0-.5411797-.2853012-1.0424538-.7511635-1.3182831l-12.1498299-7.199728v-5.0772877zm-19.3692017 7.7316189 9.8950233 5.863306-9.8950233 5.8600617-9.8950233-5.8600616zm11.3687363 11.9550534-9.8364792 5.8253975v-3.4033127l9.8364792-5.8254623zm-22.7374726-3.4033776 9.8364792 5.8254623v3.4033127l-9.8364792-5.8253975zm0 6.9644928 9.8364792 5.8254623v3.4032516l-9.8364792-5.8255882zm12.9009934 5.8254624 9.8364792-5.8254623v3.4031258l-9.8364792 5.8255882zm-3.0645142-29.0732499v5.0772877l-12.1498299 7.199728c-.4658623.2758293-.7511673.7771034-.7511673 1.3182831v5.4322319h-4.9359455v-19.0275307zm-36.9437818 0h16.0423241v20.5597916c0 .8464317.6858253 1.5322571 1.532259 1.5322571h6.4682026v5.4322319c0 .5411797.2858047 1.0424538.751667 1.3182831l12.9009933 7.6403389c.2404127.1426544.5107527.2139778.7805929.2139778s.5401802-.0713234.7805939-.2139778l12.5396881-7.4263611h7.5811768c.8464279 0 1.5322571-.6858253 1.5322571-1.5322609v-27.5242806h16.0423203c.952179 0 1.7272873.7746086 1.7272873 1.7267818v39.3883115h-80.406644v-39.3883114c0-.9521732.7751074-1.7267819 1.7272816-1.7267819zm-1.7272816 50.6143914v-6.4347839h80.4066467v6.4347839c0 .952179-.7751083 1.7267838-1.7272873 1.7267838h-76.9520778c-.9521742-.0000001-1.7272816-.7746049-1.7272816-1.7267838zm35.0195436 4.7912979h10.3675537l2.2619171 9.2025299h-14.8913879zm-7.3945045 12.267044h25.1565628c2.731144 0 4.974102 2.1270599 5.1600914 4.8117523h-35.4767418c.1859818-2.6846923 2.4289436-4.8117523 5.1600876-4.8117523z"/></g><g id="Layer_2"/></svg>
